<svg viewBox="0 0 1600 900" xmlns="http://www.w3.org/2000/svg">
  <defs>
    <linearGradient id="sky" x1="0%" y1="0%" x2="0%" y2="100%">
      <stop offset="0%" stop-color="#3B4652"/>
      <stop offset="100%" stop-color="#6C757D"/>
    </linearGradient>
    <linearGradient id="towerA" x1="0%" y1="0%" x2="100%" y2="0%">
      <stop offset="0%" stop-color="#2B3238"/>
      <stop offset="100%" stop-color="#454E56"/>
    </linearGradient>
    <linearGradient id="towerB" x1="0%" y1="0%" x2="100%" y2="0%">
      <stop offset="0%" stop-color="#3A424A"/>
      <stop offset="100%" stop-color="#545E67"/>
    </linearGradient>
    <linearGradient id="glassPanel" x1="0%" y1="0%" x2="0%" y2="100%">
      <stop offset="0%" stop-color="#FFE55C" stop-opacity="0.85"/>
      <stop offset="100%" stop-color="#FFD700" stop-opacity="0.55"/>
    </linearGradient>
  </defs>

  <rect width="1600" height="900" fill="url(#sky)"/>

  <!-- distant skyline, low detail -->
  <g opacity="0.35" fill="#2B3238">
    <rect x="0" y="560" width="90" height="220"/>
    <rect x="110" y="600" width="70" height="180"/>
    <rect x="1430" y="580" width="80" height="200"/>
    <rect x="1520" y="620" width="80" height="160"/>
  </g>

  <!-- ground -->
  <rect x="0" y="780" width="1600" height="120" fill="#454E56"/>

  <!-- main headquarters tower -->
  <g>
    <rect x="620" y="220" width="260" height="560" fill="url(#towerA)"/>
    <!-- window grid -->
    <g fill="url(#glassPanel)">
      <!-- generated grid of windows -->
      <rect x="644" y="250" width="30" height="40"/><rect x="690" y="250" width="30" height="40"/><rect x="736" y="250" width="30" height="40"/><rect x="782" y="250" width="30" height="40"/><rect x="828" y="250" width="30" height="40"/>
      <rect x="644" y="306" width="30" height="40"/><rect x="690" y="306" width="30" height="40"/><rect x="736" y="306" width="30" height="40"/><rect x="782" y="306" width="30" height="40"/><rect x="828" y="306" width="30" height="40"/>
      <rect x="644" y="362" width="30" height="40"/><rect x="690" y="362" width="30" height="40"/><rect x="736" y="362" width="30" height="40"/><rect x="782" y="362" width="30" height="40"/><rect x="828" y="362" width="30" height="40"/>
      <rect x="644" y="418" width="30" height="40"/><rect x="690" y="418" width="30" height="40"/><rect x="736" y="418" width="30" height="40"/><rect x="782" y="418" width="30" height="40"/><rect x="828" y="418" width="30" height="40"/>
      <rect x="644" y="474" width="30" height="40"/><rect x="690" y="474" width="30" height="40"/><rect x="736" y="474" width="30" height="40"/><rect x="782" y="474" width="30" height="40"/><rect x="828" y="474" width="30" height="40"/>
      <rect x="644" y="530" width="30" height="40"/><rect x="690" y="530" width="30" height="40"/><rect x="736" y="530" width="30" height="40"/><rect x="782" y="530" width="30" height="40"/><rect x="828" y="530" width="30" height="40"/>
      <rect x="644" y="586" width="30" height="40"/><rect x="690" y="586" width="30" height="40"/><rect x="736" y="586" width="30" height="40"/><rect x="782" y="586" width="30" height="40"/><rect x="828" y="586" width="30" height="40"/>
      <rect x="644" y="642" width="30" height="40"/><rect x="690" y="642" width="30" height="40"/><rect x="736" y="642" width="30" height="40"/><rect x="782" y="642" width="30" height="40"/><rect x="828" y="642" width="30" height="40"/>
      <rect x="644" y="698" width="30" height="40"/><rect x="690" y="698" width="30" height="40"/><rect x="736" y="698" width="30" height="40"/><rect x="782" y="698" width="30" height="40"/><rect x="828" y="698" width="30" height="40"/>
    </g>
    <!-- rooftop mark -->
    <rect x="720" y="190" width="60" height="30" fill="#2B3238"/>
    <circle cx="750" cy="176" r="10" fill="#FFD700"/>
  </g>

  <!-- left tower -->
  <g>
    <rect x="380" y="380" width="200" height="400" fill="url(#towerB)"/>
    <g fill="url(#glassPanel)" opacity="0.9">
      <rect x="404" y="410" width="26" height="34"/><rect x="444" y="410" width="26" height="34"/><rect x="484" y="410" width="26" height="34"/><rect x="524" y="410" width="26" height="34"/>
      <rect x="404" y="460" width="26" height="34"/><rect x="444" y="460" width="26" height="34"/><rect x="484" y="460" width="26" height="34"/><rect x="524" y="460" width="26" height="34"/>
      <rect x="404" y="510" width="26" height="34"/><rect x="444" y="510" width="26" height="34"/><rect x="484" y="510" width="26" height="34"/><rect x="524" y="510" width="26" height="34"/>
      <rect x="404" y="560" width="26" height="34"/><rect x="444" y="560" width="26" height="34"/><rect x="484" y="560" width="26" height="34"/><rect x="524" y="560" width="26" height="34"/>
      <rect x="404" y="610" width="26" height="34"/><rect x="444" y="610" width="26" height="34"/><rect x="484" y="610" width="26" height="34"/><rect x="524" y="610" width="26" height="34"/>
      <rect x="404" y="660" width="26" height="34"/><rect x="444" y="660" width="26" height="34"/><rect x="484" y="660" width="26" height="34"/><rect x="524" y="660" width="26" height="34"/>
      <rect x="404" y="710" width="26" height="34"/><rect x="444" y="710" width="26" height="34"/><rect x="484" y="710" width="26" height="34"/><rect x="524" y="710" width="26" height="34"/>
    </g>
  </g>

  <!-- right tower -->
  <g>
    <rect x="900" y="330" width="220" height="450" fill="url(#towerB)"/>
    <g fill="url(#glassPanel)" opacity="0.9">
      <rect x="924" y="360" width="28" height="36"/><rect x="966" y="360" width="28" height="36"/><rect x="1008" y="360" width="28" height="36"/><rect x="1050" y="360" width="28" height="36"/><rect x="1092" y="360" width="28" height="36"/>
      <rect x="924" y="414" width="28" height="36"/><rect x="966" y="414" width="28" height="36"/><rect x="1008" y="414" width="28" height="36"/><rect x="1050" y="414" width="28" height="36"/><rect x="1092" y="414" width="28" height="36"/>
      <rect x="924" y="468" width="28" height="36"/><rect x="966" y="468" width="28" height="36"/><rect x="1008" y="468" width="28" height="36"/><rect x="1050" y="468" width="28" height="36"/><rect x="1092" y="468" width="28" height="36"/>
      <rect x="924" y="522" width="28" height="36"/><rect x="966" y="522" width="28" height="36"/><rect x="1008" y="522" width="28" height="36"/><rect x="1050" y="522" width="28" height="36"/><rect x="1092" y="522" width="28" height="36"/>
      <rect x="924" y="576" width="28" height="36"/><rect x="966" y="576" width="28" height="36"/><rect x="1008" y="576" width="28" height="36"/><rect x="1050" y="576" width="28" height="36"/><rect x="1092" y="576" width="28" height="36"/>
      <rect x="924" y="630" width="28" height="36"/><rect x="966" y="630" width="28" height="36"/><rect x="1008" y="630" width="28" height="36"/><rect x="1050" y="630" width="28" height="36"/><rect x="1092" y="630" width="28" height="36"/>
      <rect x="924" y="684" width="28" height="36"/><rect x="966" y="684" width="28" height="36"/><rect x="1008" y="684" width="28" height="36"/><rect x="1050" y="684" width="28" height="36"/><rect x="1092" y="684" width="28" height="36"/>
    </g>
  </g>

  <!-- foreground silhouette trees for depth -->
  <g fill="#2B3238" opacity="0.5">
    <ellipse cx="200" cy="770" rx="60" ry="90"/>
    <ellipse cx="1400" cy="770" rx="70" ry="100"/>
  </g>
</svg>
